<?xml version="1.0" encoding="utf-8"?>
<!-- Generator: Adobe Illustrator 26.0.1, SVG Export Plug-In . SVG Version: 6.00 Build 0)  -->
<svg version="1.1" id="Слой_1" xmlns="http://www.w3.org/2000/svg" xmlns:xlink="http://www.w3.org/1999/xlink" x="0px" y="0px"
	 viewBox="0 0 1417.32 1417.32" style="enable-background:new 0 0 1417.32 1417.32;" xml:space="preserve">
<style type="text/css">
	.st0{fill:#FDE8D1;stroke:#FFFFFF;stroke-miterlimit:10;}
	.st1{fill:#0F3F2B;stroke:#FFFFFF;stroke-miterlimit:10;}
	.st2{fill:#F0822E;}
</style>
<g>
	<path class="st0" d="M1027.43,797.78c-4.05-1.7-8.21-3.1-12.46-4.19l-94.82-24.33c-6.11-2.53-12.71-2.59-18.71-0.24l-1.73,0.68
		c-3.8,1.48-14.32,2.28-18.35,1.04l-43.9-5.06c-6.16-0.71-6.31-9.61-0.17-10.53l3.68-0.55c11.99-1.79,22.58-9.04,28.32-19.38
		c4.48-8.06,7.76-17.27,9.25-25.92l2.4-14.02c0.57-4.73,1.87-9.4,3.86-13.82l27.05-72.43c0.65-1.54,1.63-2.89,2.87-3.94l19.68-10.51
		c3.26-3.4,4.19-5.42,3.74-11.1l-3.21-20.03c-0.16-1.87-0.54-3.78-0.92-5.81c-0.84-4.28-1.7-8.71-0.52-12.61l5.96-19.77
		c3.75-12.45,5.39-25.44,4.84-38.43l-0.56-13.25c-1.07-5.73-0.9-11.67,0.54-17.49l0.11-0.31l12.01-20.48
		c0.45-0.76,1.08-1.4,1.84-1.86l1.27-0.76c6.51-3.93,10.9-10.57,11.96-18.09l0.16-1.13c-0.15-3.97,1.22-8.08,3.83-11.34l5.11-6.38
		c2.14-2.67,5.38-4.23,8.81-4.23l2.78-0.39c4.38-1.34,6.41-2.55,8.28-5.99l2.51-2.73c2.47-4.55,6.54-8,11.43-9.71l17.86-6.85
		c8-2.8,13.81-9.7,15.19-18.04l2.93-17.8c0.06-0.38,0.07-0.75,0.04-1.14c-0.34-4.95,2.08-12.1,4.67-16.18l4.23-6.63
		c6.22-8.05,8.97-18.34,7.6-28.32l-0.99-7.15c-1.97-6.01-2.47-12.68-1.4-19.09l1.15-6.87c3.4-20.38-2.56-41.2-16.22-56.7
		l-9.46-10.73c-4.91-5.57-9.15-11.68-12.65-18.23l-1.98-3.7c-3.97-7.43-10.99-12.61-19.25-14.2l-36.65-8.05
		c-4.36-0.83-7.67-4.36-8.32-8.68c-1-6.68-4.79-12.6-11.15-14.85l-15.17-5.37c-5.9-2.09-11.63-4.63-17.13-7.6l-62.61-33.75
		c-9.37-5.05-20.23-6.61-30.64-4.41l-13.47,2.85c-5.9,1.25-11.99,1.37-17.94,0.36l-26.02-4.42c-3.2-0.54-6.33-1.45-9.32-2.71
		L720.8,38.92c-18.11-7.63-38.81-5.83-55.34,4.8l-9.5,6.12c-5.13,3.3-10.93,5.4-16.98,6.14l-87.28,10.67
		c-4.32,0.53-7.66,3.63-9.26,7.68c-3.32,8.41-10.93,14.42-19.52,17.29l-11.83,3.95c-15.07,5.03-28.22,14.6-37.64,27.4l-13.96,18.97
		c-2.47,3.77-5.9,6.99-9.87,9.29l-9.56,5.54c-8.81,5.11-15.51,13.2-18.88,22.81l-6.01,17.18c-1.63,5.78-4.95,10.94-9.59,14.85
		l-7.98,6.73c-5.88,4.96-9.45,12.13-9.87,19.82l-1.16,21.65c0.11,7.15-2.44,14.14-7.19,19.6c-8.1,9.31-11.89,21.52-10.47,33.63
		l2.48,21.2c0.32,2.76-0.05,5.56-1.09,8.14l-11.66,28.99c-7.35,18.27-3.37,39.85,11.58,52.66c3.85,3.3,6.37,7.88,7.05,12.89
		l0.83,6.11c0.23,1.67,1.15,3.18,2.54,4.15l24.62,17.29c5.18,3.64,8.08,9.71,7.67,16.02l-0.87,13.12c0,1.15-0.08,2.27-0.16,3.5
		c-0.08,1.07-0.16,2.22-0.21,3.61l1.63,9.3c0.07,0.42,0.2,0.83,0.37,1.22l2.74,6.21c3.18,2.76,3.89,7.45,1.61,11.03l-0.75,1.19
		c-4.74,7.52-3.41,17.23,2.97,23.42c2.83,2.75,4.46,6.56,4.46,10.57v22.09c0,14.09,6.63,27.36,17.9,35.81l7.14,5.35
		c4.93,3.7,9.07,8.36,12.16,13.69l41.77,72.02c3.41,5.89,5.21,12.61,5.21,19.42v32.09c0,7.72-1.89,15.49-5.48,22.35
		c-2.05,3.92-7.1,8.8-10.88,11.09c-12.22,7.4-38.97,23.62-41.39,25.08c-0.14,0.08-0.25,0.14-0.39,0.21l-50.93,24.91
		c-10.57,5.17-20.61,11.37-29.97,18.5l-9.44,7.19c-12.04,9.18-17.67,24.5-14.44,39.3l1.19,5.44c0.02,0.1,0.05,0.21,0.08,0.31
		l13.54,48c1.86,6.59,4.1,13.06,6.71,19.38l11.1,26.89c2.86,6.94,6.3,13.62,10.28,19.99l12.67,20.27
		c4.86,7.78,10.66,14.93,17.27,21.3l26.56,25.58c12.27,11.82,4.94-22.09,12.38-45.42l16.94-54.51c11.03,4.99,5.31-31.42,17.28-29.64
		l56.37,1.97c7.75,1.15,75.8-0.4,83.62,0h45.96c6.98,0.36,53.63,195.4,63.16,194.83l49.05-1.18c37.82-5.99,0.91-50.35,30.7-74.41
		v-33.87l1.06-22.23c0.19-0.44-0.33-23.98,0-24.35v-64.57c2.5-2.85,1.57-52.19,5.23-53.81l1.66-0.7c3.37-1.43,1.74-17.26,4-20.14
		c0.66-0.85,1.28-1.71,1.82-2.62l134.96,4.76c2.26-3.77,34.74,9.08,35.46,4.76l15.35-3.18c0.44-2.68,11.85,3.75,12.7,1.06
		l14.57-3.43c1.82-5.7,18.3-5.27,19.15-11.1l0.41-32.92c0.09-5.29-4.48-13.36-9.54-17.73c-2.82-2.44-12.13-6.07-15.57-7.51
		L1027.43,797.78z"/>
	<g>
		<path class="st1" d="M803.93,1123.66c5.77,9.99,12.56,17.2,20.39,21.65c7.8,4.45,6.04,7.63,18.07,9.56v12.26l-177,0v-12.26
			c15.64-1.93,27.12-5.36,34.45-10.29c7.34-4.93,11.12-12.45,11.37-22.55c0.24-10.1-2.64-23.81-8.65-41.13l-124.1-361.49l0,0
			l-115.09,346.35c-7.46,21.88-11.61,38.84-12.45,50.87c-0.85,12.03,2.53,20.81,10.1,26.34c7.57,5.53,20.02,9.5,37.34,11.91v12.26
			H361.62v-12.26c12.75-1.93,23.15-5.41,31.21-10.47c8.06-5.05,15.39-13.77,22.01-26.16c6.61-12.38,14.25-30.48,22.9-54.29
			l153.33-417.77h37.51l156.58,435.09C791.9,1099.54,798.16,1113.68,803.93,1123.66z M498.39,962.93h162.84l6.26,17.86L492,981.68
			L498.39,962.93z"/>
	</g>
	<g>
		<path class="st1" d="M1072.24,984.43h-11.55c-6.25-27.18-14.68-48.11-25.25-62.77c-10.58-14.68-25.67-25.08-45.28-31.21
			c-19.61-6.14-45.88-9.92-78.83-11.37l-64.94-2.53v443.39c0,11.79,1.26,21,3.79,27.6c2.53,6.62,7.76,11.61,15.7,14.97
			c7.93,3.37,19.95,6.13,36.07,8.3v12.26H717.24v-12.26c14.91-2.17,25.97-4.75,33.19-7.76c7.22-3.01,12.02-7.46,14.43-13.35
			c2.4-5.88,3.61-14.12,3.61-24.71V920.21c0-10.58-1.21-18.81-3.61-24.71c-2.41-5.9-7.22-10.34-14.43-13.35
			c-7.22-3-18.28-5.6-33.19-7.76v-12.26h349.59L1072.24,984.43z"/>
	</g>
	<g>
		<path class="st2" d="M890.41,652.1c-8.86-6.42-14.3-11.87-21.02-22.68c-3.84-6.18-6.67-14.28-9.48-21.73
			c-7.06-18.72-0.67-90.75-1.02-104.83c-0.13-5.14-1.68-21.97-3.17-36.62c-4.32-42.56-10.39-87.07-30.83-123.14
			c-11.56-20.41-27.74-37.22-43.39-53.48c-2.75-2.86-6.33-5.24-9.06-8.11c-1.72-1.81-2.64-4.19-4.42-6.18
			c-5.87-6.54-12.05-13.97-18.15-21.91c-4.77-6.2-9.15-10.88-13.62-17.49c-18.12-26.79-32.53-57.15-29.79-74.44
			c1.5-9.46,0.99-19.3,0.49-28.82c-0.41-7.78-0.83-15.82-0.17-23.72c0.96-11.46,3.26-24.64,5.49-37.39
			c2.8-16.02,5.57-17.71,6.04-31.83l1.28,0.49c-0.47,14.28-2.7,15.64-5.51,31.75c-2.32,13.28-4.52,25.83-5.46,37.18
			c-0.65,7.74,0.75,16.72,1.16,24.42c0.5,9.64,0.04,18.59-1.5,28.29c-2.25,14.21,8.03,37.51,22.74,61.06
			c4.86,7.78,11.45,15.98,16.99,23.5c7.49,10.17,14.09,19.41,21.56,27.71c1.68,1.86,5.83,5.27,7.46,6.99
			c2.72,2.87,2.97,4.11,5.72,6.97c15.73,16.35,32,33.25,43.69,53.89c20.67,36.48,26.98,80.95,31.33,123.74
			c1.05,10.35,1.96,20.78,3.04,31.16c2.08,20-2.17,79.72-0.85,98.34c0.39,5.48,0.73,6.03,2.78,11.11
			c8.03,19.92,14.88,33.72,28.51,43.6L890.41,652.1z"/>
		<path class="st2" d="M441.11,612.47c7.53-4.91,16.92-11.12,24.17-16.42c1.63-1.19,7.16-5.9,8.78-7.11
			c21.87-16.32,38.46-30.44,57.3-47.2c6.42-5.71,12.64-11.32,18.66-16.75c6.05-5.45,5.56-15.15,2.51-26.72
			c-1.83-6.94-3.7-15.25-6.51-23.03c-5.93-16.44-12.94-32.76-9.03-41.92c7.89-18.54,21.33-30.38,34.32-41.83
			c15.67-13.82,30.48-26.87,35.88-50.44c5.94-25.94,29.49-37.07,50.39-50.3c25.46-16.12,50.52-37.27,56.21-76.95
			c0.24-1.68,14.25,9.7,15.84,8.94c0.95-0.45-7.55-13.31-7.54-14.38c0.02-1.63-7.81-11.27-7.85-12.96l-2.21-5.47
			c0.09,3.31,0.05,6.53-0.1,9.65c-2.23,44.9-28.93,70.41-54.6,86.66c-21.34,13.51-46.39,27.31-52.57,54.25
			c-3.2,13.96-12.14,23.42-20.37,32.35c-5.21,5.65-8.77,11.53-14.73,16.77c-13.2,11.64-26.84,23.67-34.96,42.72
			c-4.28,10.07,1.74,26.76,8.11,44.44c3.38,9.37,6.82,18.9,8.44,27.07c1.67,8.44,0.77,13.97-3.52,17.84
			c-6.24,5.62-12.06,12.9-18.73,18.83c-14.36,12.77-29.69,26.02-45.84,38.79c-10.9,8.62-31.33,24.33-42.95,32.23L441.11,612.47z"/>
		<path class="st2" d="M573.37,389.65l-2.88,0.85c0.83-1.65-2.1,1.62-1.23-0.53c6.07-15.05,16.91-47.95,14.96-62.39
			c-1.78-13.21-9.96-24.51-17.88-35.45c-3.06-4.22-6.21-8.59-8.98-13.03c-10.08-16.16-15.78-34.77-16.46-53.81
			c-0.09-2.52-0.23-6.99-0.23-9.52c-0.01-6.48,0.11-11.23-1.47-17.52c-1.7-6.75-3.94-10.74-7.03-16.27l-3.31-7.18
			c-10.56-18.96-37.67-60.65-48.33-57.76l0.63-0.74c12.61-3.43,38.57,38.21,50.16,59.02l1.77,3.17c3.17,5.67,6.76,12.09,8.54,19.16
			c1.66,6.58,2.42,15.36,2.44,21.99c0,2.5-0.75,3.08-0.66,5.57c0.67,18.61,6.22,36.79,16.08,52.58c2.73,4.37,5.86,8.7,8.89,12.88
			c8.09,11.18,16.46,22.75,18.33,36.58c1.76,13.09,0.81,17.01-2.36,33.55c-0.34,1.78,10.57,3.04,9.97,4.59
			C593.18,368.3,574.44,387.51,573.37,389.65z"/>
		<path class="st2" d="M805.53,123.24c-0.59,0-1.18-0.03-1.78-0.1c-6.28-0.74-11.07-5.4-15.3-10.33c-2.91-3.39-5.73-6.86-8.55-10.34
			c-7.04-8.68-14.31-17.65-22.94-24.88c-12.28-10.29-21.7-14.31-34.03-13.15c-0.49,0.05-8.51,7.26-8.99,7.33
			c-0.87,0.12,1.46-7.92,0.61-7.74l0.63-3.18c0.52-0.11,1.39-6.85,1.91-6.94c0.49-0.08,5.36,4.51,5.84,4.65
			c11.91,3.51,22.72,5.33,36.11,16.56c8.87,7.43,16.24,16.53,23.37,25.32c2.8,3.45,8.11,7.08,11,10.44
			c3.81,4.43,5.53,8.44,10.71,9.05c4.96,0.58,9.65-2.17,14.55-5.1c1.41-0.84,2.81-1.68,4.22-2.43
			c37.52-20.08,118.61-1.18,132.46,2.74l2.38,3.7c-13.55-3.84-91.58-21.12-127.99-6.19c-1.43,0.59-8.04,4.14-9.41,4.96
			C815.71,120.38,810.92,123.24,805.53,123.24z"/>
	</g>
</g>
</svg>
