<svg width="15" height="13" viewBox="0 0 15 13" fill="none" xmlns="http://www.w3.org/2000/svg">
<path d="M0.249954 6.15791L3.52714 7.41869L4.80468 11.6595C4.86023 11.946 5.1935 12.0034 5.41568 11.8314L7.24867 10.2841C7.41531 10.1122 7.69304 10.1122 7.91523 10.2841L11.1924 12.7484C11.4146 12.9203 11.7479 12.8057 11.8034 12.5191L14.2474 0.484387C14.3029 0.197845 14.0252 -0.0886935 13.7475 0.0259231L0.249954 5.4129C-0.0833181 5.52752 -0.0833181 6.04329 0.249954 6.15791ZM4.63805 6.7883L11.0813 2.71941C11.1924 2.6621 11.3035 2.83403 11.1924 2.89134L5.91559 7.99177C5.74895 8.1637 5.58231 8.39293 5.58231 8.67947L5.41568 10.0549C5.41568 10.2268 5.13795 10.2841 5.08241 10.0549L4.41586 7.53331C4.24922 7.24676 4.36033 6.90291 4.63805 6.7883Z" fill="white"/>
</svg>
